<?xml version="1.0" encoding="utf-8"?>
<!-- Generator: Adobe Illustrator 24.0.1, SVG Export Plug-In . SVG Version: 6.00 Build 0)  -->
<svg version="1.1" id="Livello_1" xmlns="http://www.w3.org/2000/svg" xmlns:xlink="http://www.w3.org/1999/xlink" x="0px" y="0px"
	 viewBox="0 0 128 128" style="enable-background:new 0 0 128 128;" xml:space="preserve">
<style type="text/css">
	.st0{
        fill: #ffd700;
    }
</style>
<title></title>
<path class="st0" d="M125.5,56.9c3.4-3.5,3.4-9.1-0.1-12.6c-1.3-1.3-3-2.2-4.9-2.4L88.3,37c-0.9-0.1-1.7-0.8-2.2-1.6L72,5.1
	c-2.1-4.4-7.3-6.3-11.8-4.2c-1.9,0.9-3.4,2.4-4.2,4.2L41.8,35.4c-0.4,0.9-1.2,1.5-2.2,1.6l-32.1,5c-4.8,0.7-8.2,5.3-7.4,10.1
	c0.3,1.8,1.1,3.6,2.4,4.9l23.6,24.3c0.6,0.7,0.9,1.6,0.8,2.5l-5.5,34c-0.8,4.8,2.5,9.4,7.3,10.2c2,0.3,4,0,5.7-1l28.2-15.7
	c0.9-0.5,1.9-0.5,2.8,0l0,0l28.2,15.7c4.3,2.4,9.7,0.8,12-3.5c1-1.7,1.3-3.7,1-5.7l-5.5-34c-0.1-0.9,0.1-1.8,0.8-2.5L125.5,56.9z"/>
<path class="st0" d="M95.2,84.6l5.5,34c0.2,1.1-0.3,2.2-1.2,2.8c-0.9,0.6-2.1,0.7-3,0.2L68.3,106l0,0c-2.7-1.5-5.9-1.5-8.6,0
	l-28.2,15.6c-0.9,0.5-2.1,0.5-3-0.2c-0.9-0.6-1.4-1.7-1.2-2.8l5.5-34c0.5-2.8-0.4-5.6-2.4-7.6L6.8,52.7c-0.8-0.8-1-1.9-0.7-2.9
	c0.3-1,1.2-1.8,2.3-1.9l32.2-4.9c2.9-0.4,5.4-2.3,6.7-5L61.4,7.6c0.7-1.4,2.3-2,3.8-1.4c0.6,0.3,1.1,0.8,1.4,1.4l14.2,30.3
	c1.3,2.7,3.8,4.6,6.7,5l32.2,4.9c1.1,0.1,1.9,0.9,2.3,1.9c0.4,1,0.1,2.2-0.7,2.9L97.6,77C95.6,79,94.7,81.9,95.2,84.6z"/>
</svg>
